<mxfile host="app.diagrams.net" agent="Mozilla/5.0 (Windows NT 10.0; Win64; x64; rv:132.0) Gecko/20100101 Firefox/132.0" version="24.8.9">
  <diagram name="Page-1" id="SE-eor7VZ1ynedY3jTAZ">
    <mxGraphModel dx="2625" dy="1395" grid="1" gridSize="10" guides="1" tooltips="1" connect="1" arrows="1" fold="1" page="1" pageScale="1" pageWidth="827" pageHeight="1169" math="0" shadow="0">
      <root>
        <mxCell id="0" />
        <mxCell id="1" parent="0" />
        <mxCell id="RTtrcfpRit-_jH_xaAgf-1" value="E0" style="verticalLabelPosition=middle;verticalAlign=middle;html=1;shape=mxgraph.flowchart.on-page_reference;labelPosition=center;align=center;" vertex="1" parent="1">
          <mxGeometry x="340" y="80" width="60" height="60" as="geometry" />
        </mxCell>
        <mxCell id="RTtrcfpRit-_jH_xaAgf-2" value="E1" style="verticalLabelPosition=middle;verticalAlign=middle;html=1;shape=mxgraph.flowchart.on-page_reference;labelPosition=center;align=center;" vertex="1" parent="1">
          <mxGeometry x="340" y="190" width="60" height="60" as="geometry" />
        </mxCell>
        <mxCell id="RTtrcfpRit-_jH_xaAgf-3" value="" style="endArrow=none;html=1;rounded=0;entryX=0.5;entryY=1;entryDx=0;entryDy=0;entryPerimeter=0;exitX=0.5;exitY=0;exitDx=0;exitDy=0;exitPerimeter=0;" edge="1" parent="1" source="RTtrcfpRit-_jH_xaAgf-2">
          <mxGeometry width="50" height="50" relative="1" as="geometry">
            <mxPoint x="330" y="380" as="sourcePoint" />
            <mxPoint x="370" y="140" as="targetPoint" />
          </mxGeometry>
        </mxCell>
        <mxCell id="RTtrcfpRit-_jH_xaAgf-4" value="start" style="text;html=1;align=center;verticalAlign=middle;whiteSpace=wrap;rounded=0;" vertex="1" parent="1">
          <mxGeometry x="380" y="160" width="60" height="30" as="geometry" />
        </mxCell>
        <mxCell id="RTtrcfpRit-_jH_xaAgf-5" value="" style="endArrow=none;html=1;rounded=0;entryX=0.5;entryY=1;entryDx=0;entryDy=0;entryPerimeter=0;exitX=0.5;exitY=0;exitDx=0;exitDy=0;exitPerimeter=0;" edge="1" parent="1" source="RTtrcfpRit-_jH_xaAgf-10" target="RTtrcfpRit-_jH_xaAgf-2">
          <mxGeometry width="50" height="50" relative="1" as="geometry">
            <mxPoint x="220" y="310" as="sourcePoint" />
            <mxPoint x="350" y="370" as="targetPoint" />
            <Array as="points">
              <mxPoint x="240" y="310" />
              <mxPoint x="370" y="310" />
            </Array>
          </mxGeometry>
        </mxCell>
        <mxCell id="RTtrcfpRit-_jH_xaAgf-6" value="" style="endArrow=none;html=1;rounded=0;exitX=0.5;exitY=0;exitDx=0;exitDy=0;exitPerimeter=0;" edge="1" parent="1" source="RTtrcfpRit-_jH_xaAgf-11">
          <mxGeometry width="50" height="50" relative="1" as="geometry">
            <mxPoint x="500" y="340" as="sourcePoint" />
            <mxPoint x="370" y="310" as="targetPoint" />
            <Array as="points">
              <mxPoint x="500" y="310" />
            </Array>
          </mxGeometry>
        </mxCell>
        <mxCell id="RTtrcfpRit-_jH_xaAgf-7" value="" style="endArrow=none;html=1;rounded=0;exitX=0.5;exitY=0;exitDx=0;exitDy=0;exitPerimeter=0;" edge="1" parent="1" source="RTtrcfpRit-_jH_xaAgf-12">
          <mxGeometry width="50" height="50" relative="1" as="geometry">
            <mxPoint x="620" y="340" as="sourcePoint" />
            <mxPoint x="500" y="310" as="targetPoint" />
            <Array as="points">
              <mxPoint x="620" y="310" />
            </Array>
          </mxGeometry>
        </mxCell>
        <mxCell id="RTtrcfpRit-_jH_xaAgf-8" value="" style="endArrow=none;html=1;rounded=0;" edge="1" parent="1">
          <mxGeometry width="50" height="50" relative="1" as="geometry">
            <mxPoint x="370" y="380" as="sourcePoint" />
            <mxPoint x="370" y="310" as="targetPoint" />
          </mxGeometry>
        </mxCell>
        <mxCell id="RTtrcfpRit-_jH_xaAgf-9" value="E3" style="verticalLabelPosition=middle;verticalAlign=middle;html=1;shape=mxgraph.flowchart.on-page_reference;labelPosition=center;align=center;" vertex="1" parent="1">
          <mxGeometry x="340" y="380" width="60" height="60" as="geometry" />
        </mxCell>
        <mxCell id="RTtrcfpRit-_jH_xaAgf-10" value="E2" style="verticalLabelPosition=middle;verticalAlign=middle;html=1;shape=mxgraph.flowchart.on-page_reference;labelPosition=center;align=center;" vertex="1" parent="1">
          <mxGeometry x="210" y="380" width="60" height="60" as="geometry" />
        </mxCell>
        <mxCell id="RTtrcfpRit-_jH_xaAgf-11" value="E4" style="verticalLabelPosition=middle;verticalAlign=middle;html=1;shape=mxgraph.flowchart.on-page_reference;labelPosition=center;align=center;" vertex="1" parent="1">
          <mxGeometry x="470" y="385" width="60" height="60" as="geometry" />
        </mxCell>
        <mxCell id="RTtrcfpRit-_jH_xaAgf-12" value="" style="verticalLabelPosition=middle;verticalAlign=middle;html=1;shape=mxgraph.flowchart.on-page_reference;labelPosition=center;align=center;" vertex="1" parent="1">
          <mxGeometry x="590" y="385" width="60" height="60" as="geometry" />
        </mxCell>
        <mxCell id="RTtrcfpRit-_jH_xaAgf-13" value="" style="endArrow=none;html=1;rounded=0;entryX=0.5;entryY=1;entryDx=0;entryDy=0;entryPerimeter=0;exitX=0.025;exitY=0.39;exitDx=0;exitDy=0;exitPerimeter=0;" edge="1" parent="1" source="RTtrcfpRit-_jH_xaAgf-9" target="RTtrcfpRit-_jH_xaAgf-9">
          <mxGeometry width="50" height="50" relative="1" as="geometry">
            <mxPoint x="370" y="350" as="sourcePoint" />
            <mxPoint x="350" y="370" as="targetPoint" />
            <Array as="points">
              <mxPoint x="300" y="403" />
              <mxPoint x="300" y="510" />
              <mxPoint x="370" y="510" />
            </Array>
          </mxGeometry>
        </mxCell>
        <mxCell id="RTtrcfpRit-_jH_xaAgf-14" value="" style="endArrow=none;html=1;rounded=0;" edge="1" parent="1">
          <mxGeometry width="50" height="50" relative="1" as="geometry">
            <mxPoint x="370" y="510" as="sourcePoint" />
            <mxPoint x="420" y="570" as="targetPoint" />
            <Array as="points">
              <mxPoint x="420" y="510" />
            </Array>
          </mxGeometry>
        </mxCell>
        <mxCell id="RTtrcfpRit-_jH_xaAgf-15" value="He" style="text;html=1;align=center;verticalAlign=middle;whiteSpace=wrap;rounded=0;" vertex="1" parent="1">
          <mxGeometry x="180" y="330" width="60" height="30" as="geometry" />
        </mxCell>
        <mxCell id="RTtrcfpRit-_jH_xaAgf-16" value="Be" style="text;html=1;align=center;verticalAlign=middle;whiteSpace=wrap;rounded=0;" vertex="1" parent="1">
          <mxGeometry x="320" y="330" width="60" height="30" as="geometry" />
        </mxCell>
        <mxCell id="RTtrcfpRit-_jH_xaAgf-17" value="be" style="text;html=1;align=center;verticalAlign=middle;whiteSpace=wrap;rounded=0;" vertex="1" parent="1">
          <mxGeometry x="440" y="330" width="60" height="30" as="geometry" />
        </mxCell>
        <mxCell id="RTtrcfpRit-_jH_xaAgf-18" value="stop" style="text;html=1;align=center;verticalAlign=middle;whiteSpace=wrap;rounded=0;" vertex="1" parent="1">
          <mxGeometry x="631" y="330" width="60" height="30" as="geometry" />
        </mxCell>
        <mxCell id="RTtrcfpRit-_jH_xaAgf-19" value="Fin" style="text;html=1;align=center;verticalAlign=middle;whiteSpace=wrap;rounded=0;" vertex="1" parent="1">
          <mxGeometry x="650" y="400" width="60" height="30" as="geometry" />
        </mxCell>
        <mxCell id="RTtrcfpRit-_jH_xaAgf-20" value="Vf1 fermÃ©" style="text;html=1;align=center;verticalAlign=middle;whiteSpace=wrap;rounded=0;" vertex="1" parent="1">
          <mxGeometry x="430" y="520" width="60" height="30" as="geometry" />
        </mxCell>
        <mxCell id="RTtrcfpRit-_jH_xaAgf-21" value="Vf1 ouvert" style="text;html=1;align=center;verticalAlign=middle;whiteSpace=wrap;rounded=0;" vertex="1" parent="1">
          <mxGeometry x="300" y="470" width="60" height="30" as="geometry" />
        </mxCell>
        <mxCell id="RTtrcfpRit-_jH_xaAgf-22" value="E5" style="verticalLabelPosition=middle;verticalAlign=middle;html=1;shape=mxgraph.flowchart.on-page_reference;labelPosition=center;align=center;" vertex="1" parent="1">
          <mxGeometry x="390" y="570" width="60" height="60" as="geometry" />
        </mxCell>
        <mxCell id="RTtrcfpRit-_jH_xaAgf-23" value="Ouvrir Ve1" style="text;html=1;align=center;verticalAlign=middle;whiteSpace=wrap;rounded=0;" vertex="1" parent="1">
          <mxGeometry x="460" y="585" width="60" height="30" as="geometry" />
        </mxCell>
        <mxCell id="RTtrcfpRit-_jH_xaAgf-24" value="Couper Ve1" style="text;html=1;align=center;verticalAlign=middle;whiteSpace=wrap;rounded=0;" vertex="1" parent="1">
          <mxGeometry x="140" y="395" width="60" height="30" as="geometry" />
        </mxCell>
        <mxCell id="RTtrcfpRit-_jH_xaAgf-25" value="Signal panneau de controle" style="text;html=1;align=center;verticalAlign=middle;whiteSpace=wrap;rounded=0;" vertex="1" parent="1">
          <mxGeometry x="530" y="400" width="60" height="30" as="geometry" />
        </mxCell>
        <mxCell id="RTtrcfpRit-_jH_xaAgf-26" value="" style="endArrow=none;html=1;rounded=0;entryX=0.5;entryY=1;entryDx=0;entryDy=0;entryPerimeter=0;" edge="1" parent="1" target="RTtrcfpRit-_jH_xaAgf-10">
          <mxGeometry width="50" height="50" relative="1" as="geometry">
            <mxPoint x="240" y="730" as="sourcePoint" />
            <mxPoint x="350" y="430" as="targetPoint" />
          </mxGeometry>
        </mxCell>
        <mxCell id="RTtrcfpRit-_jH_xaAgf-27" value="" style="endArrow=none;html=1;rounded=0;entryX=0.5;entryY=1;entryDx=0;entryDy=0;entryPerimeter=0;" edge="1" parent="1" target="RTtrcfpRit-_jH_xaAgf-22">
          <mxGeometry width="50" height="50" relative="1" as="geometry">
            <mxPoint x="420" y="730" as="sourcePoint" />
            <mxPoint x="350" y="430" as="targetPoint" />
          </mxGeometry>
        </mxCell>
        <mxCell id="RTtrcfpRit-_jH_xaAgf-28" value="" style="endArrow=none;html=1;rounded=0;entryX=0.5;entryY=1;entryDx=0;entryDy=0;entryPerimeter=0;" edge="1" parent="1" target="RTtrcfpRit-_jH_xaAgf-11">
          <mxGeometry width="50" height="50" relative="1" as="geometry">
            <mxPoint x="500" y="730" as="sourcePoint" />
            <mxPoint x="250" y="450" as="targetPoint" />
            <Array as="points">
              <mxPoint x="550" y="590" />
            </Array>
          </mxGeometry>
        </mxCell>
        <mxCell id="RTtrcfpRit-_jH_xaAgf-29" value="" style="endArrow=none;html=1;rounded=0;exitX=0;exitY=0.5;exitDx=0;exitDy=0;exitPerimeter=0;" edge="1" parent="1" source="RTtrcfpRit-_jH_xaAgf-2">
          <mxGeometry width="50" height="50" relative="1" as="geometry">
            <mxPoint x="80" y="220" as="sourcePoint" />
            <mxPoint x="500" y="730" as="targetPoint" />
            <Array as="points">
              <mxPoint x="80" y="220" />
              <mxPoint x="80" y="730" />
              <mxPoint x="190" y="730" />
            </Array>
          </mxGeometry>
        </mxCell>
      </root>
    </mxGraphModel>
  </diagram>
</mxfile>
